<mxfile host="app.diagrams.net" modified="2024-02-04T10:17:37.828Z" agent="Mozilla/5.0 (Windows NT 10.0; Win64; x64) AppleWebKit/537.36 (KHTML, like Gecko) Chrome/121.0.0.0 Safari/537.36" version="23.1.1" etag="Q0ifkqcBu3pK709lx1eW" type="github">
  <diagram name="第 1 页" id="um2WhcsZgQEkdkBTrQec">
    <mxGraphModel>
      <root>
        <mxCell id="0" />
        <mxCell id="1" parent="0" />
      </root>
    </mxGraphModel>
  </diagram>
</mxfile>
